<svg width="32" height="56" viewBox="0 0 32 56" fill="none" xmlns="http://www.w3.org/2000/svg">
<path d="M15.9062 0.197266C11.8451 0.197266 7.95033 1.81054 5.07868 4.68219C2.20703 7.55384 0.59375 11.4486 0.59375 15.5098C0.59375 23.9535 9.22344 26.3095 9.83156 36.291H21.9787C22.5869 26.3095 31.2188 23.9535 31.2188 15.5098C31.2188 11.4486 29.6055 7.55384 26.7338 4.68219C23.8622 1.81054 19.9674 0.197266 15.9062 0.197266ZM15.9062 55.6132C20.0494 55.6132 21.3378 53.3666 21.7403 51.9688H10.0722C10.4747 53.3688 11.7631 55.6132 15.9062 55.6132ZM9.89062 49.777H21.9219V38.4807H9.89062V49.777Z" fill="#2D493D"/>
</svg>
